/* XPM */
static char *_993f8f47ab8498dab09eccaad1a1cc74fSguSVCrjyknLxs[] = {
/* columns rows colors chars-per-pixel */
"64 64 10 1 ",
"  c #10121C",
". c #2C1E31",
"X c #4D3533",
"o c #3E3B65",
"O c #56587B",
"+ c #A26D3F",
"@ c #802954",
"# c #B0A7B8",
"$ c #F6E8E0",
"% c white",
/* pixels */
"################################################################",
"################################################################",
"################################################################",
"################################################################",
"##################%#########################%###################",
"#################%+####%###############%####+%##################",
"##################+####%###############%####+###################",
"##################++##++###############++##++###################",
"##################++##+#################+##++###################",
"###################++#+#################+#++####################",
"###################++++#################++++####################",
"###################++++#################++++####################",
"##################++##++#######X#######++##++#########%%########",
"#################%%####+++####XXX####+++####%%########%%########",
"######################+++++##XXXXX##+++++############%%%%#######",
"#####################++##+++XXXXXXX+++##++###########%%%%#######",
"####################%%###X+++XXXXX+++X###%%##########%%%%#######",
"########################XXX+++XXX+++XXX#############%%%%%%######",
"#######################XXX$+++XXX+++$XXX############%%%%%%######",
"#######  ####  ########XX$$$++$$$++$$$XX#############%XX%#######",
"#######  ####  ########XXX$$$$$$$$$$$XXX##############XX########",
"#######  ####  ########XXXX$$$$$$$$$XXXX##############XX########",
"#######  ####  #########XXX$$$$$$$$$XXX###############XX########",
"#######  ####  #########XXX$$$$$$$$$XXX###############XX########",
"#######  ####  #########XXXX $$$$$ XXXX###############XX########",
"#######  ####  #########XXXX  $$$  XXXX###############XX########",
"#######  ####  #########XXXX  $$$  XXXX###############XX########",
"#######  ####  ########XXXXX$ $$$ $XXXXX##############XX########",
"####.............######XXXXX$$$$$$$XXXXX##############XX########",
"#######  ####  #######XXXXXX$$$$$$$XXXXXX#############XX########",
"#######  ####  #######XXXXXX$$$$$$$XXXXXX#############XX########",
"#######  ####  ########XXXXX$$$$$$$XXXXX##############XX########",
"#######  ####  #########XXXX$$$$$$$XXXX###############XX########",
"#######  ####  ##########XXXX$$$$$XXXX################XX########",
"#######  ####  ###########XXX$$$$$XXX#################XX########",
"#######  ####  #############XX$$$XX###################XX########",
"#######  ####  ###############$$$#####################XX########",
"#######  ####  ###############$$$#####################XX########",
"####.............##############$######################XX########",
"#######  ####  ################$######################XX########",
"#######XX####XX#######################################XX########",
"#######XX####XX#######################################XX########",
"#######XX####XX#######################################XX########",
"######XX####XX########################################XX########",
"######XX####XX########################################XX########",
"#####XXX###XXX########################################XX########",
"#####XXX###XXX########################################XX########",
"####XXXXX#XXXXX#######################################XX########",
"####XXXXX#XXXXX#######################################XX########",
"####XXXXX#XXXXX#######################################XX########",
"######################################################XX########",
"################################################################",
"################################################################",
"oO@@##########@@oO@@##########@@oO@@##########@@oO@@##########@@",
"oO##@@@####@@@##oO##@@@####@@@##oO##@@@####@@@##oO##@@@####@@@##",
"oO#####@@@@#####oO#####@@@@#####oO#####@@@@#####oO#####@@@@#####",
"oO##############oO##############oO##############oO##############",
"oO##############oO##############oO##############oO##############",
"oO##############oO##############oO##############oO##############",
"oO##############oO##############oO##############oO##############",
"oO##############oO##############oO##############oO##############",
"oO##############oO##############oO##############oO##############",
"oO##############oO##############oO##############oO##############",
"oO##############oO##############oO##############oO##############"
};
