/* XPM */
static char *result[] = {
/* columns rows colors chars-per-pixel */
"64 64 13 1 ",
"  c #25131A",
". c #3D253B",
"X c #2A5A39",
"o c #427F3B",
"O c #56587B",
"+ c #802954",
"@ c #895A45",
"# c #8A961F",
"$ c #E1A171",
"% c #FFD569",
"& c #5880CC",
"* c #62ABD4",
"= c #A7ACBA",
/* pixels */
"                                                                ",
"                                                                ",
"                                                                ",
"                          #%#                     #%#           ",
"                          %#%%%%%%%%%%%%%%%%%%%%%%%#%           ",
"                          #%.......................%#           ",
"                           %.......................%            ",
"                           %.......................%  =======   ",
"                           %.......................%  =======   ",
"                           %.......................%  =   = =   ",
"                           %...............oo......%  =======   ",
"     #%#           #%#     %...o........   oo    ..%  = =  ==   ",
"     %#%%%%%%%%%%%%%#%     % .oo.  ....    oo      %  =======   ",
"     #%             %#     %  oo          oooo     %  =  =  =   ",
"      %             %      %  ooo         o@@o  X  %  =======   ",
"      %             %      % o@@     X     @@  XXX %            ",
"      %      ++     %      %  @@   XXXXXXXXXXXXXXXX%            ",
"      %     +++++   %      %XXXXXXXXXXXXXXXXXXXXXXX%            ",
"      %  ++++++++   %     #%XXXXXXXXXXXXXXXXXXXXXXX%#           ",
"      %    ++++++   %     %#%%%%%%%%%%%%%%%%%%%%%%%#%           ",
"      %    $$+++++  %     #%#                     #%#           ",
"      %    $$$$$++  %                                           ",
"      %    $$$$     %                                           ",
"      %    $$$$@    %                                           ",
"      %    @@@@@    %                                           ",
"      %    @@@@@    %              #%#                       #%#",
"      %   @@@@@@@   %              %%%%%%%%%%%%%%%%%%%%%%%%%%%%%",
"      %   @@@@@@@   %              #%&&&&&&&&&&&&&&&&&&&&&&&&&%#",
"     #%   @@@@@@@   %#              %&&%&&&&&&&&&&&%&&&&&&&&&&% ",
"     %#%%%%%%%%%%%%%#%              %*&&&%&&****&&&&&&&&&%%%&&% ",
"     #%#           #%#              %&*&&&&*&&&&*&&&&&&&&%%%&&% ",
"                                    %&&****&&&&&&*&&&&%&&%%%&&% ",
"        ===========                 %&&&&&&.&&*&&*&&&&&&&&&&&&% ",
"        =   =   = =                 %&&&&&&.&&&**&&&&&&&&&&&&&% ",
"        ===========                 %&&&&&&.&&&&&&&&&&&&&&&&&&% ",
"                                    %&&&&.&.&%&&&&&&&&&&&&&&&&% ",
"                                    %&&&&...&.&&&&&&&&&&&&&&&&% ",
"                                    %&&&&....&&&&&&&&&&&&&&&&&% ",
"                                    %&&&&....&&&&&&&&&&&&&&&&&% ",
"                                    %&&&......&&&==&&&&&&&&&&&% ",
"                                   #%&.........&&&&&==&==&&&&&%#",
"                 %                 %%%%%%%%%%%%%%%%%%%%%%%%%%%%%",
"                 %%   =            #%#                       #%#",
"                  %% ====                                       ",
"                  %%====                    ===========         ",
"                  %====                     = = =   = =         ",
"                  ====%%%                   ===========         ",
"                 ====%%%%%%%                                    ",
"                ====  %%%%                                      ",
"                  =                                             ",
"                                                                ",
"                                                                ",
"                                                                ",
"OO++          ++OO++          ++OO++          ++OO++          ++",
"OO  +++    +++  OO  +++    +++  OO  +++    +++  OO  +++    +++  ",
"OO     ++++     OO     ++++     OO     ++++     OO     ++++     ",
"OO              OO              OO              OO              ",
"OO              OO              OO              OO              ",
"OO              OO              OO              OO              ",
"OO              OO              OO              OO              ",
"OO              OO              OO              OO              ",
"OO              OO              OO              OO              ",
"OO              OO              OO              OO              ",
"OO              OO              OO              OO              "
};
