/* XPM */
static char *_3a2663a9956443bceb62c250ca8cfc7tfQz0EtrVMEYbi3i[] = {
/* columns rows colors chars-per-pixel */
"64 64 17 1 ",
"  c #10121C",
". c #4D3533",
"X c #6E4C30",
"o c #3E3B65",
"O c #1E4044",
"+ c #56587B",
"@ c #94493A",
"# c #A26D3F",
"$ c #DE5D3A",
"% c #802954",
"& c #E98537",
"* c #F3A833",
"= c #CE9248",
"- c #5E5B8C",
"; c #8C78A5",
": c #B0A7B8",
"> c #F6E8E0",
/* pixels */
"OOOOOOOOOOOOOOOOOOOOOOOOOOOOOOOOOOOOOOOOOOOOOOOOOOOOOOOOOOOOOOOO",
"OOOOOOOOOOOOOOOOOOOOOOOOOOOOOOOOOOOOOOOOOOOOOOOOOOOOOOOOOOOOOOOO",
"OOOOOOOOOOOOOOOOOOOOOOOOOOOOOOOOOOOOOOOOOOOOOOOOOOOOOOOOOOOOOOOO",
"OOOOOOOOOOOOOOOOOOOOOOOOOOOOOOOOOOOOOOOOOOOOOOOOOOOOOOOOOOOOOOOO",
"OOOOOOOOOOOOOOOOOOOOOOOOOOOOOOOOOOOOOOOOOOOOOOOOOOOOOOOOOOOOOOOO",
"OOOOOOOOOOOOOOOOOOOOOOOOOOOOOOOOOOOOOOOOOOOOOOOOOOOOOOOOOOOOOOOO",
"OOOOOOOOOOOOOOOOOOOOOOOOOOOOOOOOOOOOOOOOOOOOOOOOOOOOOOOOOOOOOOOO",
"OOOOOOOOOOOOOOOOOOOOOOOOOOOOOOOOOOOOOOOOOOOOOOOOOOOOOOOOOOOOOOOO",
"OOOOOOOOOOOOOOOOOOOOOOOOOOOOOOOOOOOOOOOOOOOOOOOOOOOOOOOOOOOOOOOO",
"OOOOOOOOOOOOOOOOOOOOOOOOOOOOOOOOOOOOOOOOOOOOOOOOOOOOOOOOOOOOOOOO",
"OOOOOOOOOOOOOOOOOOOOOOOOOOOOOOOOOOOOOOOOOOOOOOOOOOOOOOOOOOOOOOOO",
"OOOOOOOOOOOOOOOOOOOOOOOOOOOOOOOOOOOOOOOOOOOOOOOOOOOOOOOOOOOOOOOO",
"OOOOOOOOOOOOOOOOOOOOOOOOOOOOOOOOOOOOOOOOOOOOOOOOOOOOOOOOOOOOOOOO",
"OOOOOOOO        OOOOOOOOOOOOOOOOOOOOOOOOOOOOOOOOOO::;;;OOOOOOOOO",
"OOOOOOO           OOOOOOOOOOOOOOOOOOOOOOOOOOOOOOOO:-;OO;;OOO::;O",
"OOOOOOOOO          OOOOOOOOOOOOOOOOOOOOOOOOOOOOOOO---OOOO;;O;;;O",
"OOOOOOOOOO          OOOOOOOOOOOOOOOOOOOOOOOOOOOOOOOOOOOOOO:;;;;O",
"OOOOOOOOOO......  OOOOOOOOOOOOOOOOOOOOOOOOOOOOOOOOOOOOOO::;;;;OO",
"OOOOOOOOOOO......OOOOOOOOOOOOOOOOOOOOOOOOOOOOOOOOOOOOOO:;;;--;OO",
"OOOOOOOOOO=XXXXXOOOOOOOOOOOOOOOOOOOOOOOOOOOOOOOOOOOOOOO:;;--O;OO",
"OOOOOOOOO=XXXXXXXOOOOOOOOOOOOOOOOOOOOOOOOOOOOOOOOOOOOOOO;;;OO-OO",
"OOOOOOOOOXXXXXXXXOOOOOOOOOXXOOOOOOOOOOOXXOOOOOOOOOOOOOOOO;;OO-OO",
"OOOOOOOOO..XXXXXXOOOOOOOOXOOX$$$$$$$$$XOOXOOOOOOOOOOOOOOO;;O-OOO",
"OOOOOOOOO..XXXXXXOOOOOOOOXOOO$$$$$$$$$OOOXOOOOOOOOOOOOOO;-;;OOOO",
"OOOOOOOOO..XXXXXXOOOOOOOOXOOOO$$$$$$$OOOOXOOOOOOOOOOOOO;-O;OOOOO",
"OOOOOOOO..XXXXXXXOOOOOOOOOXOOOO$$$$$OOOOXOOOOOOOOOOOOOO-OO;;OOOO",
"OOOOOOOO..XXXXX.XOOOOOOOOOOXOOO$$$$&OOXXOOOOOOOOOOOOOO;;;;;;;OOO",
"OOOOOOO..XXXXXO.XXOOOOOOOOOO&&&&&***&&&OOOOOOOOOOOOOO--------;OO",
"OOOOOOO===========OOOOOOOOO@@@@@$$$***$$OOOOOOOOOOOO===========O",
"OOOOOO=###=====###=OOOOOOOO&$$$$&&&&>>&&OOOOOOOOOOO=###=====###=",
"OOOOOO=###########=OOOOOOOO&$$$$&&&&>>&&OOOOOOOOOOO=###########=",
"OOOOOO=###########=OOOOOOOO&$$$$&&&&&&&&OOOOOOOOOOO=###########=",
"OOOOOO=#######X###=OOOOOOOO&$$$$$&&&&&&&OOOOOOOOOOO=#######X###=",
"OOOOOOOXXXXXXXXXXXOOOOOOOOOO&$$$$$&&&&&OOOOOOOOOOOOOXXXXXXXXXXXO",
"OOOOOOOO.........OOOOOOOOOOOO&$$$$$$$$OOOOOOOOOOOOOOO.........OO",
"OOOOOOOOX#.###.#XOOOOOOOOOOOOO&$$$$$$OOOOOOOOOOOOOOOOX#.###.#XOO",
"OOOOOOOO#=#===#=#OOOOOOOOOOOOOO&$$$$OOOOOOOOOOOOOOOOO#=#===#=#OO",
"OOOOOOOO#=#===#=#OOOOOOOOOOOO&>>&&&&&&OOOOOOOOOOOOOOO#=#===#=#OO",
"OOOOOOOO#=#===#=#OOOOOOOOOOO===========OOOOOOOOOOOOOO#=#===#=#OO",
"OOOOOOOO#=#===#=#OOOOOOOOOO=###=====###=OOOOOOOOOOOOO#=#===#=#OO",
"OOOOOOOO#=#===#=#OOOOOOOOOO=###########=OOOOOOOOOOOOO#=#===#=#OO",
"OOOOOOOO#=#===#=#OOOOOOOOOO=###########=OOOOOOOOOOOOO#=#===#=#OO",
"OOOOOOOO#=#===#=#OOOOOOOOOO=#######X###=OOOOOOOOOOOOO#=#===#=#OO",
"OOOOOOOO#=#===#=#OOOOOOOOOOOXXXXXXXXXXXOOOOOOOOOOOOOO#=#===#=#OO",
"OOOOOOOO#=#===#=#OOOOOOOOOOOO.........OOOOOOOOOOOOOOO#=#===#=#OO",
"OOOOOOOO#=#===#=#OOOOOOOOOOOOX#.###.#XOOOOOOOOOOOOOOO#=#===#=#OO",
"OOOOOOOO#=#===#=#OOOOOOOOOOOO#=#===#=#OOOOOOOOOOOOOOO#=#===#=#OO",
"OOOOOOOO#=#===#=#OOOOOOOOOOOO#=#===#=#OOOOOOOOOOOOOOO#=#===#=#OO",
"OOOOOOOO#=#===#=#OOOOOOOOOOOO#=#===#=#OOOOOOOOOOOOOOO#=#===#=#OO",
"OOOOOOOO#=#===#=#OOOOOOOOOOOO#=#===#=#OOOOOOOOOOOOOOO#=#===#=#OO",
"OOOOOOOO#=#===#=#OOOOOOOOOOOO#=#===#=#OOOOOOOOOOOOOOO#=#===#=#OO",
"OOOOOOOO#=#===#=#OOOOOOOOOOOO#=#===#=#OOOOOOOOOOOOOOO#=#===#=#OO",
"OOOOOOOO#=#===#=#OOOOOOOOOOOO#=#===#=#OOOOOOOOOOOOOOO#=#===#=#OO",
"o+%%OOOO#=#===%%o+%%OOOOOOOOO#%%o+%%=#OOOOOOOO%%o+%%O#=#===#=#%%",
"o+OO%%%O#=#%%%#=o+OO%%%OOOO%%%=#o+=#%%%OOOO%%%OOo+OO%%%#===%%%OO",
"o+OOOOO%%%%===#=o+OOOOO%%%%OO#=#o+=#=#O%%%%OOOOOo+OOO#=%%%%#=#OO",
"o+OOOOOO#=#===#=o+OOOOOOOOOOO#=#o+=#=#OOOOOOOOOOo+OOO#=#===#=#OO",
"o+OOOOOO#=#===#=o+OOOOOOOOOOO#=#o+=#=#OOOOOOOOOOo+OOO#=#===#=#OO",
"o+OOOOOO#=#===#=o+OOOOOOOOOOO#=#o+=#=#OOOOOOOOOOo+OOO#=#===#=#OO",
"o+OOOOOO#=#===#=o+OOOOOOOOOOO#=#o+=#=#OOOOOOOOOOo+OOO#=#===#=#OO",
"o+OOOOOO#=#===#=o+OOOOOOOOOOO#=#o+=#=#OOOOOOOOOOo+OOO#=#===#=#OO",
"o+OOOOOO#=#===#=o+OOOOOOOOOOO#=#o+=#=#OOOOOOOOOOo+OOO#=#===#=#OO",
"o+OOOOOO#=#===#=o+OOOOOOOOOOO#=#o+=#=#OOOOOOOOOOo+OOO#=#===#=#OO",
"o+OOOOOO#=#===#=o+OOOOOOOOOOO#=#o+=#=#OOOOOOOOOOo+OOO#=#===#=#OO"
};
