/* XPM */
static char *_18bc0d230894312b04a901c53b7913eJK8JdqhoB8S5nlM5[] = {
/* columns rows colors chars-per-pixel */
"64 64 9 1 ",
"  c #10121C",
". c #2C1E31",
"X c #6B2643",
"o c #56587B",
"O c #A26D3F",
"+ c #802954",
"@ c #CE9248",
"# c #DAB163",
"$ c white",
/* pixels */
"$$$$$$$$$$$$$$$$$$$$$$$$$$$$$$$$$$$$$$$$$$$$$$$$$$$$$$$$$$$$$$$$",
"$$$$$$$$$$$$$$$$$$$$$$$$$$$$$$$$$$$$$$$$$$$$$$$$$$$$$$$$$$$$$$$$",
"$$$$$$$$$$$$$$$$$$$$$$$$$$$$@@@@@###$$$$$$$$$$$$$$$$$$$$$$$$$$$$",
"$$$$$$$$$$$$$$$$$$$$$$$$$$$@@@@@@@@@#$$$$$$$$$$$$$$$$$$$$$$$$$$$",
"$$$$$$$$$$$$$$$$$$$$$$$$$$O@@@@@@@@@@@$$$$$$$$$$$$$$$$$$$$$$$$$$",
"$$$$$$$$$$$$$$$$$$$$$$$$$$OOOOO@@@@@@@$$$$$$$$$$$$$$$$$$$$$$$$$$",
"$$$$$$$$$$$$$$$$$$$$$$$$$$OXXXXXXXXXX@$$$$$$$$$$$$$$$$$$$$$$$$$$",
"$$$$$$$$$$$$$$$$$$$$$$$$$$X$$$....$$$X$$$$$$$$$$$$$$$$$$$$$$$$$$",
"$$$$$$$$$$$$$$$$$$$$$$$$$$$$$$....$$$$$$$$$$$$$$$$$$$$$$$$$$$$$$",
"$$$$$$$$$$$$$$$$$$$$$$$$$$$$$$....$$$$$$$$$$$$$$$$$$$$$$$$$$$$$$",
"$$$$$$$$$$$$$$$$$$$$$$$$XXX$$$....$$$XXX$$$$$$$$$$$$$$$$$$$$$$$$",
"$$$$$$$$$$$$$$$$$$$$$$$@@@@X$$....$$X@@@@$$$$$$$$$$$$$$$$$$$$$$$",
"$$$$$$$$$$$$$$$$$$$$$$@@@##@X$....$X@@@##@$$$$$$$$$$$$$$$$$$$$$$",
"$$$$$$$$$$$$$$$$$$$$$@@@@@#@@X....X@@@@@#@@$$$$$$$$$$$$$$$$$$$$$",
"$$$$$$$$$$$$$$$$$$$$@@@@@@@@@@XXXX@@@@@@@@@@$$$$$$$$$$$$$$$$$$$$",
"$$$$$$$$..$$$$$$$$$$@@@@@@@@@X@@@@X@@@@@@@@@$$$$$$$$$$$$$$$$$$$$",
"$$$$$$$.##.$$$$$$$$@@@@@@@@@@X@@@@X@@@@@@@@@@$$$$$$$$$$$$$$$$$$$",
"$$$$$$$.##.$$$$$$$$OOO@@@@@@@XO@@@X@@@@@@@@@@$$$$$$$$$$$$$$$$$$$",
"$$$$$$$$  $$$$$$$$$XXXOOO@@@@XOOO@X@@@@@@@XXX$$$$$$$$$$$$$$$$$$$",
"$$$$$$......$$$$$$$$$$XXXX@@XOOXXO@XOOXXXX$$$$$$$$$$$$$$$$$$$$$$",
"$$$$$$$$  $$$$$$$$$$$$$$$$XXOOOXXOOOXX$$$$$$$$$$$$$$$$$$$$$$$$$$",
"$$$$$$$$  $$$$$$$$$$$$$$$$$$XXXXXXXX$$$$$$$$$$$$$$$$$$$$$$$$$$$$",
"$$$$$$$    $$$$$$$$$$$$XXXX$$......$$XXXX$$$$$$$$$$$$$$$$$$$$$$$",
"$$$$$        $$$$$$$$$$@@@@XXXXXXXXXX@@@@$$$$$$$$$$$$$$$$$$$$$$$",
"$$$$   @@@@   $$$$$$$$$@@@@@@@@@@@@@@##@@$$$$$$$$$$$$$$$$$$$$$$$",
"$$$$$$O@@#@@$$$$$$$$$$$@@@@@@@@@@@@@@##@@$$$$$$XX$$$$$$$$$$$$$$$",
"$$$$$$O@@#@@$$$$$$$$$$@@@@@@@@@@@@@@@#@@@@$$$$X@@$$$$$$$$$$$$$$$",
"$$$$$$O@@#@@$$$$$$$$$$OOOO@@@@@@@@@@@@@@@@$$$X@@#$$$$$$$$$$$$$$$",
"$$$$$$@@@#@@$$$$$$$$$XXXXXOOO@@@@@@@@@XXXXX$$O@@#$$$$$$$$$$$$$$$",
"$$$$$$@@@#@@$$$$$$$$$@@@@@XXXXXXXXXXXX@@@@@$$O@@#$$$$$$$$$$$$$$$",
"$$$$$$@@@#@@$$$$$$$$$@@@@@@@@@@@@@@@@@##@@@$$O@@@$$$$$$$$$$$$$$$",
"$$$$$$@@@#@@$$$$$$$$$@@@@@@@@@@@@@@@@@##@@@$$OO@@$$$$$$$$$$$$$$$",
"$$$$$$@@@#@@$$$$$$$$@@@@@@@@@@@@@@@@@@#@@@@@$$O@X$$$$$$$$$$$$$$$",
"$$$$$$@@@#@@$$$$$$$$OOOOO@@@@@@@@@@@@@@@@@@@$$OX$$$$$$$$$$$$$$$$",
"$$$$$$@@@#@@$$$$$$$XXXXXXOOOO@@@@@@@@@@XXXXXX$X$$$$$$$$$$$$$$$$$",
"$$$$$$@@@#@@$$$$$$$@@@@@@XXXXXXXXXXXXXX@@@@@@$$$$$$$$$$$$$$$$$$$",
"$$$$$$@@@#@@$$$$$$$@@@@@@@@@@@@@@@@@@@@@##@@@$$$$$$$$$$$$$$$$$$$",
"$$$$$$@@@#@@$$$$$$$@@@@@@@@@@@@@@@@@@@@@##@@@$$$$$$$$$$$$$$$$$$$",
"$$$$$$O@@#@@$$$$$$@@@@@@@@@@@@@@@@@@@@@@##@@@@$$$$$$$$$$$$$$$$$$",
"$$$$$$$O@@@$$$$$$$@@@@@@@@@@@@@@@@@@@@@@#@@@@@$$$$$$$$$$$$$$$$$$",
"$$$$$$$O@@@$$$$$$$OOOO@@@@@@@@@@@@@@@@@@@@@@@@$$$$$$$$$$$$$$$$$$",
"$$$$$$$$O@$$$$$$$$XXXXOOOO@@@@@@@@@@@@@@@@XXXX$$$$$$$$$$$$$$$$$$",
"$$$$$$$$O@$$$$$$$$$$$$XXXXXX@@@@@@@@XXXXXX$$$$$$$$$$$$$$$$$$$$$$",
"$$$$$$$$$$$$$$$$$$$$$$$$$$$$XXXXXXXX$$$$$$$$$$$$$$$$$$$$$$$$$$$$",
"$$$$$$$$$$$$$$$$$$$$$$$$$$$$$$.....$$$$$$$$$$$$$$$$$$$$$$$$$$$$$",
"$$$$$$$$$$$$$$$$$$$$$$$$$$$$$$....$$$$$$$$$$$$$$$$$$$$$$$$$$$$$$",
"$$$$$$$$$$$$$$$$$$$$$$$$$$$$$$....$$$$$$$$$$$$$$$$$$$$$$$$$$$$$$",
"$$$$$$$$$$$$$$$$$$$$$$$$$$$$$$....$$$$$$$$$$$$$$$$$$$$$$$$$$$$$$",
"$$$$$$$$$$$$$$$$$$$$$$$$$$$$$$....$$$$$$$$$$$$$$$$$$$$$$$$$$$$$$",
"$$$$$$$$$$$$$$$$$$$$$$$$$$$$$$....$$$$$$$$$$$$$$$$$$$$$$$$$$$$$$",
"$$$$$$$$$$$$$$$$$$$$$$$$$$XXX$....$XXX$$$$$$$$$$$$$$$$$$$$$$$$$$",
"$$$$$$$$$$$$$$$$$$$$$$$$$@@@@$....$@@@@$$$$$$$$$$$$$$$$$$$$$$$$$",
"$$$$$$$$$$$$$$$$$$$$$$$$$@@@@$....$@@@@$$$$$$$$$$$$$$$$$$$$$$$$$",
"oo++$$$$$$$$$$++oo++$$$$$@@@@$++oo++@@@$$$$$$$++oo++$$$$$$$$$$++",
"oo$$+++$$$$+++$$oo$$+++$$$@+++..oo$@+++$$$$+++$$oo$$+++$$$$+++$$",
"oo$$$$$++++$$$$$oo$$$$$++++@@$..oo$@@@$++++$$$$$oo$$$$$++++$$$$$",
"oo$$$$$$$$$$$$$$oo$$$$$$$$@@O$..oo$O@@$$$$$$$$$$oo$$$$$$$$$$$$$$",
"oo$$$$$$$$$$$$$$oo$$$$$$$$@@O$..oo$O@@$$$$$$$$$$oo$$$$$$$$$$$$$$",
"oo$$$$$$$$$$$$$$oo$$$$$$$$@@O$..oo$O@@$$$$$$$$$$oo$$$$$$$$$$$$$$",
"oo$$$$$$$$$$$$$$oo$$$$$$$@@OO$..oo$O@@@$$$$$$$$$oo$$$$$$$$$$$$$$",
"oo$$$$$$$$$$$$$$oo$$$$$$@OOOO$..oo$OO@@@$$$$$$$$oo$$$$$$$$$$$$$$",
"oo$$$$$$$$$$$$$$oo$$............oo..........$$$$oo$$$$$$$$$$$$$$",
"oo$$$$$$$$$$$$$$oo..............oo............$$oo$$$$$$$$$$$$$$",
"oo$$$$$$$$$$$$$$oo..............oo............$$oo$$$$$$$$$$$$$$"
};
